<svg xmlns:dc="http://purl.org/dc/elements/1.1/" xmlns:cc="http://creativecommons.org/ns#" xmlns:rdf="http://www.w3.org/1999/02/22-rdf-syntax-ns#" xmlns:svg="http://www.w3.org/2000/svg" xmlns="http://www.w3.org/2000/svg" xmlns:sodipodi="http://sodipodi.sourceforge.net/DTD/sodipodi-0.dtd" xmlns:inkscape="http://www.inkscape.org/namespaces/inkscape" width="423.4497985839844" height="163.65792846679688" version="1.1" inkscape:version="0.91 r13725" sodipodi:docname="artificial_neuron.svg" style=""><rect id="backgroundrect" width="100%" height="100%" x="0" y="0" fill="none" stroke="none"/>
  <defs id="defs4">
    <marker inkscape:stockid="Arrow1Lend" orient="auto" refY="0" refX="0" id="marker37521" style="overflow:visible" inkscape:isstock="true">
      <path id="path37523" d="M-10,0 L-14.000000059604645,4.000000059604645 L1.4901161193847656e-7,0 L-14.000000059604645,-4.000000059604645 L-10,0 z" style="fill:#000000;fill-opacity:1;fill-rule:evenodd;stroke:#000000;stroke-width:1pt;stroke-opacity:1" inkscape:connector-curvature="0"/>
    </marker>
    <marker inkscape:stockid="Arrow1Lend" orient="auto" refY="0" refX="0" id="marker23129" style="overflow:visible" inkscape:isstock="true">
      <path id="path23131" d="M-10,0 L-14.000000059604645,4.000000059604645 L1.4901161193847656e-7,0 L-14.000000059604645,-4.000000059604645 L-10,0 z" style="fill:#000000;fill-opacity:1;fill-rule:evenodd;stroke:#000000;stroke-width:1pt;stroke-opacity:1" inkscape:connector-curvature="0"/>
    </marker>
    <marker inkscape:isstock="true" style="overflow:visible" id="marker17938" refX="0" refY="0" orient="auto" inkscape:stockid="Arrow1Lend" inkscape:collect="always">
      <path style="fill:#000000;fill-opacity:1;fill-rule:evenodd;stroke:#000000;stroke-width:1pt;stroke-opacity:1" d="M-10,0 L-14.000000059604645,4.000000059604645 L1.4901161193847656e-7,0 L-14.000000059604645,-4.000000059604645 L-10,0 z" id="path17940" inkscape:connector-curvature="0"/>
    </marker>
    <marker inkscape:stockid="Arrow1Lend" orient="auto" refY="0" refX="0" id="Arrow1Lend" style="overflow:visible" inkscape:isstock="true" inkscape:collect="always">
      <path id="path17495" d="M-10,0 L-14.000000059604645,4.000000059604645 L1.4901161193847656e-7,0 L-14.000000059604645,-4.000000059604645 L-10,0 z" style="fill:#000000;fill-opacity:1;fill-rule:evenodd;stroke:#000000;stroke-width:1pt;stroke-opacity:1" inkscape:connector-curvature="0"/>
    </marker>
    <marker inkscape:isstock="true" style="overflow:visible" id="marker22221" refX="0" refY="0" orient="auto" inkscape:stockid="Arrow1Lend">
      <path inkscape:connector-curvature="0" style="fill:#000000;fill-opacity:1;fill-rule:evenodd;stroke:#000000;stroke-width:1pt;stroke-opacity:1" d="M-10,0 L-14.000000059604645,4.000000059604645 L1.4901161193847656e-7,0 L-14.000000059604645,-4.000000059604645 L-10,0 z" id="path22223"/>
    </marker>
    <marker inkscape:isstock="true" style="overflow:visible" id="marker21117" refX="0" refY="0" orient="auto" inkscape:stockid="Arrow1Lend" inkscape:collect="always">
      <path inkscape:connector-curvature="0" style="fill:#000000;fill-opacity:1;fill-rule:evenodd;stroke:#000000;stroke-width:1pt;stroke-opacity:1" d="M-10,0 L-14.000000059604645,4.000000059604645 L1.4901161193847656e-7,0 L-14.000000059604645,-4.000000059604645 L-10,0 z" id="path21119"/>
    </marker>
    <marker inkscape:isstock="true" style="overflow:visible" id="marker34054" refX="0" refY="0" orient="auto" inkscape:stockid="Arrow1Lend">
      <path inkscape:connector-curvature="0" style="fill:#000000;fill-opacity:1;fill-rule:evenodd;stroke:#000000;stroke-width:1pt;stroke-opacity:1" d="M-10,0 L-14.000000059604645,4.000000059604645 L1.4901161193847656e-7,0 L-14.000000059604645,-4.000000059604645 L-10,0 z" id="path34056"/>
    </marker>
    <marker inkscape:isstock="true" style="overflow:visible" id="marker34130" refX="0" refY="0" orient="auto" inkscape:stockid="Arrow1Lend">
      <path inkscape:connector-curvature="0" style="fill:#000000;fill-opacity:1;fill-rule:evenodd;stroke:#000000;stroke-width:1pt;stroke-opacity:1" d="M-10,0 L-14.000000059604645,4.000000059604645 L1.4901161193847656e-7,0 L-14.000000059604645,-4.000000059604645 L-10,0 z" id="path34132"/>
    </marker>
    <marker inkscape:stockid="Arrow1Lend" orient="auto" refY="0" refX="0" id="marker33821" style="overflow:visible" inkscape:isstock="true">
      <path id="path33823" d="M-10,0 L-14.000000059604645,4.000000059604645 L1.4901161193847656e-7,0 L-14.000000059604645,-4.000000059604645 L-10,0 z" style="fill:#000000;fill-opacity:1;fill-rule:evenodd;stroke:#000000;stroke-width:1pt;stroke-opacity:1" inkscape:connector-curvature="0"/>
    </marker>
    <marker inkscape:stockid="Arrow1Lend" orient="auto" refY="0" refX="0" id="marker33769" style="overflow:visible" inkscape:isstock="true">
      <path id="path33771" d="M-10,0 L-14.000000059604645,4.000000059604645 L1.4901161193847656e-7,0 L-14.000000059604645,-4.000000059604645 L-10,0 z" style="fill:#000000;fill-opacity:1;fill-rule:evenodd;stroke:#000000;stroke-width:1pt;stroke-opacity:1" inkscape:connector-curvature="0"/>
    </marker>
    <marker inkscape:stockid="Arrow1Lend" orient="auto" refY="0" refX="0" id="marker33723" style="overflow:visible" inkscape:isstock="true">
      <path id="path33725" d="M-10,0 L-14.000000059604645,4.000000059604645 L1.4901161193847656e-7,0 L-14.000000059604645,-4.000000059604645 L-10,0 z" style="fill:#000000;fill-opacity:1;fill-rule:evenodd;stroke:#000000;stroke-width:1pt;stroke-opacity:1" inkscape:connector-curvature="0"/>
    </marker>
    <marker inkscape:stockid="Arrow1Lend" orient="auto" refY="0" refX="0" id="marker33879" style="overflow:visible" inkscape:isstock="true">
      <path id="path33881" d="M-10,0 L-14.000000059604645,4.000000059604645 L1.4901161193847656e-7,0 L-14.000000059604645,-4.000000059604645 L-10,0 z" style="fill:#000000;fill-opacity:1;fill-rule:evenodd;stroke:#000000;stroke-width:1pt;stroke-opacity:1" inkscape:connector-curvature="0"/>
    </marker>
  </defs>
  <sodipodi:namedview id="base" pagecolor="#ffffff" bordercolor="#666666" borderopacity="1.0" inkscape:pageopacity="0.0" inkscape:pageshadow="2" inkscape:zoom="3.3584761" inkscape:cx="131.24463" inkscape:cy="102.96562" inkscape:document-units="px" inkscape:current-layer="layer1" showgrid="false" inkscape:window-width="2495" inkscape:window-height="1416" inkscape:window-x="65" inkscape:window-y="24" inkscape:window-maximized="1" fit-margin-top="0" fit-margin-left="0" fit-margin-right="0" fit-margin-bottom="0"/>
  <metadata id="metadata7">
    <rdf:RDF>
      <cc:Work rdf:about="">
        <dc:format>image/svg+xml</dc:format>
        <dc:type rdf:resource="http://purl.org/dc/dcmitype/StillImage"/>
        <dc:title/>
      </cc:Work>
    </rdf:RDF>
  </metadata>
  
<g class="currentLayer" style=""><title>Layer 1</title>
    <g id="g17474" class="">
      <path sodipodi:nodetypes="cccc" inkscape:connector-curvature="0" id="path17468" d="m287.31433049250154,95.46202546994073 c0,0 0.4250468210444325,0.14001952157955966 9.50497508304096,0 c13.621745624059827,-0.21879224214076842 17.955291209124198,-21.65113796259675 28.366168668608225,-22.012083785389223 l10.495678346187844,0 " style="fill:none;fill-rule:evenodd;stroke:#000000;stroke-width:1.5;stroke-linecap:butt;stroke-linejoin:miter;stroke-miterlimit:4;stroke-dasharray:none;stroke-opacity:1" stroke-width="0"/>
      <path inkscape:connector-curvature="0" id="path17470" d="m312.3947018601775,71.97311402146943 l0,24.632763354645704 " style="fill:none;fill-rule:evenodd;stroke:#000000;stroke-width:0.69999999;stroke-linecap:butt;stroke-linejoin:miter;stroke-miterlimit:4;stroke-dasharray:none;stroke-opacity:1" stroke-width="0"/>
      <path sodipodi:nodetypes="cc" style="fill:none;fill-rule:evenodd;stroke:#000000;stroke-width:0.69999999;stroke-linecap:butt;stroke-linejoin:miter;stroke-miterlimit:4;stroke-dasharray:none;stroke-opacity:1" d="m288.15013826231007,84.2894880259505 l47.07751357251482,0 " id="path17472" inkscape:connector-curvature="0" stroke-width="0"/>
    </g>
    <path sodipodi:nodetypes="cc" inkscape:connector-curvature="0" id="path17486" d="m65.36536407470703,22.788436889648438 l99.58728790283203,45.26694869995117 " style="opacity:0.5;fill:none;fill-rule:evenodd;stroke:#000000;stroke-width:1;stroke-linecap:butt;stroke-linejoin:miter;stroke-miterlimit:4;stroke-dasharray:none;stroke-dashoffset:0;stroke-opacity:1;marker-end:url(#Arrow1Lend)" class=""/>
    <path style="opacity:0.5;fill:none;fill-rule:evenodd;stroke:#000000;stroke-width:1;stroke-linecap:butt;stroke-linejoin:miter;stroke-miterlimit:4;stroke-dasharray:none;stroke-dashoffset:0;stroke-opacity:1;marker-end:url(#marker17938)" d="m65.36536407470703,147.00938415527344 l99.7978286743164,-46.319671630859375 " id="path17936" inkscape:connector-curvature="0" sodipodi:nodetypes="cc" class=""/><path style="opacity:0.5;fill:none;fill-rule:evenodd;stroke:#000000;stroke-width:1;stroke-linecap:butt;stroke-linejoin:miter;stroke-miterlimit:4;stroke-dasharray:none;stroke-dashoffset:0;stroke-opacity:1;marker-end:url(#marker17938)" d="m67.05680751800537,86.90133571624756 l96.02825164794922,-39.08604049682617 " inkscape:connector-curvature="0" sodipodi:nodetypes="cc" class="" id="svg_2" transform="rotate(39.258, 115.071, 67.3583)"/>
    <path style="opacity:0.5;fill:none;fill-rule:evenodd;stroke:#000000;stroke-width:0.398;stroke-linecap:butt;stroke-linejoin:miter;stroke-miterlimit:4;stroke-dasharray:none;stroke-dashoffset:0;stroke-opacity:1;marker-end:url(#marker23129)" d="m200.81319427490234,37.83564758300781 l-0.08510000258684158,11.109140396118164 " id="path22219" inkscape:connector-curvature="0" sodipodi:nodetypes="cc" class=""/>
    <path style="opacity:0.5;fill:none;fill-rule:evenodd;stroke:#000000;stroke-width:0.7206502;stroke-linecap:butt;stroke-linejoin:miter;stroke-miterlimit:4;stroke-dasharray:none;stroke-dashoffset:0;stroke-opacity:1;marker-end:url(#marker21117)" d="m231.25508880615234,83.70729064941406 l47.79874038696289,0.32471001148223877 " id="path21115" inkscape:connector-curvature="0" sodipodi:nodetypes="cc" class=""/>
    <rect style="fill:#ffffff;fill-opacity:1;stroke:#000000;stroke-width:0.80000001;stroke-miterlimit:4;stroke-dasharray:none;stroke-dashoffset:0;stroke-opacity:1" id="rect4136-1" width="30.291297912597656" height="162.85792541503906" x="25.764328002929688" y="0.9405420422554016" class=""/>
    <circle style="fill:none;fill-opacity:1;stroke:#000000;stroke-width:0.90056282;stroke-miterlimit:4;stroke-dasharray:none;stroke-dashoffset:0;stroke-opacity:1" id="path4138-0" cx="199.5972900390625" cy="83.07017517089844" r="31.909400939941406" class=""/>
    <g id="g29382" class="">
      <path inkscape:connector-curvature="0" d="m40.67628216353478,9.470857860733304 c-0.59441801405859,0.11145750004231925 -0.8173220155959129,0.5572610856676334 -0.8173220155959129,0.9101939458238846 c0,0.44580800307464585 0.35292400886631015,0.5944113919824119 0.6129750384628778,0.5944113919824119 c0.5572820009379384,0 0.9473530378634933,-0.48295942399630576 0.9473530378634933,-0.9844956074952123 c0,-0.7801650872049564 -0.8916160061492917,-1.1330967671892154 -1.6717799787473666,-1.1330967671892154 c-1.1330989964029783,0 -1.7646639729557023,1.1145221713352669 -1.9318310083439343,1.4674550970566287 c-0.4272399965143201,-1.3931533042550797 -1.5789180144162174,-1.4674550970566287 -1.9132739839396464,-1.4674550970566287 c-1.8946840458498002,0 -2.897763100488902,2.433372764877248 -2.897763100488902,2.8420314451137756 c0,0.07430500549197205 0.07425000455975539,0.16717909936859598 0.2043249964296816,0.16717909936859598 c0.1486100109839441,0 0.18576800480794908,-0.11145750004231925 0.2229150000846385,-0.18575371161382215 c0.6315650421178347,-2.06186642347393 1.8761049915683259,-2.4519507701169516 2.414797119981529,-2.4519507701169516 c0.8359010043122765,0 1.0030680397005085,0.7801673164187193 1.0030680397005085,1.2259753850584758 c0,0.40865881136674886 -0.11150700170087813,0.8358911039805648 -0.3343560023059844,1.7275104539505008 l-0.6315650421178347,2.544824798428465 c-0.2786300183129313,1.114523351507259 -0.8173110006573197,2.136167036103487 -1.8018110665800577,2.136167036103487 c-0.09284000001907344,0 -0.5572600366258627,0 -0.9473310079863069,-0.24147859739127142 c0.6687009896733755,-0.13003320230751036 0.8173110006573197,-0.6872899442865616 0.8173110006573197,-0.9101939458238846 c0,-0.3715074232276443 -0.2786300183129313,-0.5944113919824119 -0.6315650421178347,-0.5944113919824119 c-0.44580800307464585,0 -0.9287740491471297,0.3900820190815928 -0.9287740491471297,0.9844944928883308 c0,0.7801662018118378 0.8730480323715213,1.1330979473612075 1.6717909936859598,1.1330979473612075 c0.8916049912106985,0 1.5231699677634225,-0.7058645401405101 1.9132631001312745,-1.4674550970566287 c0.297209007029295,1.0959465264395476 1.2259719756727208,1.4674550970566287 1.9132520851926813,1.4674550970566287 c1.8946950607883934,0 2.897763100488902,-2.4333748629607896 2.897763100488902,-2.8420314451137756 c0,-0.09288400240397454 -0.07425000455975539,-0.16717909936859598 -0.18574600771331795,-0.16717909936859598 c-0.1671780011529922,0 -0.18575700626063352,0.09288400240397454 -0.24148300664496425,0.24147971199815288 c-0.5015340198502543,1.6346330162532325 -1.5789069994776241,2.3962225241275803 -2.414797119981529,2.3962225241275803 c-0.6501440308341984,0 -1.0030680397005085,-0.4829583093894243 -1.0030680397005085,-1.2445499809124243 c0,-0.4086576967598674 0.07425000455975539,-0.7058623109267472 0.3715029975826738,-1.931837695985223 l0.6501330158956051,-2.5262502025745164 c0.2786300183129313,-1.1145221713352669 0.9101949948656554,-1.9318397940687646 1.7646639729557023,-1.9318397940687646 c0.03707000134766103,0 0.5572600366258627,0 0.9473530378634933,0.24148081021375667 z" id="use28720" stroke-width="0"/>
      <path inkscape:connector-curvature="0" d="m48.262784403163096,15.885555265393123 c0,-1.3250434805055846 -0.13626800176811216,-2.129975198181654 -0.5448850153768063,-2.9225252069673786 c-0.5448740004382131,-1.0897546229526043 -1.5479530550773148,-1.3621938523854737 -2.2290401465034506,-1.3621938523854737 c-1.5603390912649644,0 -2.129974018009662,1.1640563501890426 -2.303345086430312,1.510797175728129 c-0.4458190180132391,0.9040009277300598 -0.4705800098848343,2.129975198181654 -0.4705800098848343,2.7739218836247233 c0,0.8173165081266163 0.03707000134766103,2.068058392525984 0.6315650421178347,3.058743543164155 c0.5696460072484015,0.9163858493108279 1.4860340202078817,1.1516735922569268 2.1423600541973116,1.1516735922569268 c0.5944069991199967,0 1.6594050886285316,-0.18575371161382215 2.278584028993606,-1.4117279001090282 c0.45818302432370217,-0.8916182353630546 0.4953410017564295,-1.993757779896427 0.4953410017564295,-2.798689235312054 zm-2.7739250307500356,3.8636774900539876 c-0.4210359962644574,0 -1.2755049743545044,-0.19813750219643111 -1.535556003951072,-1.4984133687542425 c-0.13626800176811216,-0.7058645401405101 -0.13626800176811216,-1.8699219393713236 -0.13626800176811216,-2.513867575772622 c0,-0.8544679290482762 0,-1.721317435856676 0.13626800176811216,-2.4024142309191916 c0.26005101320529,-1.2631245767663728 1.2259610918643489,-1.3869602861612549 1.535556003951072,-1.3869602861612549 c0.4210359962644574,0 1.2755049743545044,0.21052130917031775 1.5231809827020157,1.3374251893959297 c0.14859899604535087,0.6810980407996183 0.14859899604535087,1.6098665824774514 0.14859899604535087,2.451949458814738 c0,0.730631039481402 0,1.8451543254235503 -0.14859899604535087,2.5386338784181817 c-0.26005101320529,1.3002758665578114 -1.1145200732517253,1.4736469349784613 -1.5231809827020157,1.4736469349784613 z" id="use28722" stroke-width="0"/>
    </g>
    
      <path inkscape:connector-curvature="0" d="m40.69990620414683,44.365648510147366 c-0.59441801405859,0.11145750004231925 -0.8173110006573197,0.5572610856676334 -0.8173110006573197,0.9101939458238846 c0,0.44580800307464585 0.3529129939277169,0.5944113919824119 0.6129750384628778,0.5944113919824119 c0.5572709859993452,0 0.9473420229249001,-0.48295942399630576 0.9473420229249001,-0.9844956074952123 c0,-0.7801650872049564 -0.8916160061492917,-1.1330967671892154 -1.6717799787473666,-1.1330967671892154 c-1.1330989964029783,0 -1.7646639729557023,1.1145221713352669 -1.9318310083439343,1.4674550970566287 c-0.4272399965143201,-1.3931533042550797 -1.5789180144162174,-1.4674550970566287 -1.9132739839396464,-1.4674550970566287 c-1.8946840458498002,0 -2.8977520855503087,2.433372764877248 -2.8977520855503087,2.8420314451137756 c0,0.07430500549197205 0.07425000455975539,0.16717909936859598 0.20433601136827484,0.16717909936859598 c0.14859899604535087,0 0.18574600771331795,-0.11145750004231925 0.22290400153732293,-0.18575371161382215 c0.6315650421178347,-2.06186642347393 1.8761049915683259,-2.4519507701169516 2.4147861050429356,-2.4519507701169516 c0.8359010043122765,0 1.003078989073991,0.7801673164187193 1.003078989073991,1.2259753850584758 c0,0.40865881136674886 -0.1115180002481937,0.8358911039805648 -0.3343670172445776,1.7275104539505008 l-0.6315650421178347,2.544824798428465 c-0.2786300183129313,1.114523351507259 -0.8173110006573197,2.136167036103487 -1.8018000516414645,2.136167036103487 c-0.09284000001907344,0 -0.5572709859993452,0 -0.9473420229249001,-0.24147859739127142 c0.6687009896733755,-0.13003320230751036 0.8173110006573197,-0.6872899442865616 0.8173110006573197,-0.9101939458238846 c0,-0.3715074232276443 -0.2786300183129313,-0.5944113919824119 -0.6315650421178347,-0.5944113919824119 c-0.44579702091860796,0 -0.9287740491471297,0.3900820190815928 -0.9287740491471297,0.9844944928883308 c0,0.7801662018118378 0.8730480323715213,1.1330979473612075 1.671802008624553,1.1330979473612075 c0.8916049912106985,0 1.5231699677634225,-0.7058645401405101 1.9132520851926813,-1.4674550970566287 c0.297209007029295,1.0959465264395476 1.225982990611314,1.4674550970566287 1.9132631001312745,1.4674550970566287 c1.8946950607883934,0 2.8977520855503087,-2.4333748629607896 2.8977520855503087,-2.8420314451137756 c0,-0.09288400240397454 -0.07425000455975539,-0.16717909936859598 -0.18574600771331795,-0.16717909936859598 c-0.1671780011529922,0 -0.18574600771331795,0.09288400240397454 -0.24147200809764868,0.24147971199815288 c-0.5015340198502543,1.6346330162532325 -1.5789180144162174,2.3962225241275803 -2.414808134920122,2.3962225241275803 c-0.6501440308341984,0 -1.0030680397005085,-0.4829583093894243 -1.0030680397005085,-1.2445499809124243 c0,-0.4086576967598674 0.07425000455975539,-0.7058623109267472 0.3715029975826738,-1.931837695985223 l0.6501440308341984,-2.5262502025745164 c0.2786300183129313,-1.1145221713352669 0.9101949948656554,-1.9318397940687646 1.7646639729557023,-1.9318397940687646 c0.03707000134766103,0 0.5572600366258627,0 0.9473420229249001,0.24148081021375667 z" id="use28724" stroke-width="0" class=""/>
      <path inkscape:connector-curvature="0" d="m46.11927277668656,46.84236899229563 c0,-0.33435711691286585 -0.024750001519918463,-0.3467409238867525 -0.35913902405476605,-0.3467409238867525 c-0.5077160230054858,0.49534319818763706 -1.1640420569949157,0.792548894178843 -2.340481165116074,0.792548894178843 l0,0.40865881136674886 c0.3343450201499465,0 1.0030570247619153,0 1.7213020936207784,-0.3343560023059844 l0,6.352776140576623 c0,0.45819292465541395 -0.03707000134766103,0.6067951989562985 -1.2135860706152926,0.6067951989562985 l-0.43342199966955164,0 l0,0.4086576967598674 c0.5077270051615237,-0.03715800201964381 1.5727249963223926,-0.03715800201964381 2.1299850329482553,-0.03715800201964381 c0.5572600366258627,0 1.6346220013146393,0 2.1423600541973116,0.03715800201964381 l0,-0.4086576967598674 l-0.4334330146081449,0 c-1.1764499919295304,0 -1.2135860706152926,-0.1486023070834399 -1.2135860706152926,-0.6067951989562985 l0,-6.872886854364367 z" id="use28726" stroke-width="0" class=""/>
    
    <g id="g29390" class="">
      <path inkscape:connector-curvature="0" d="m40.60701413147763,141.42570710389737 c-0.5944069991199967,0.11145750004231925 -0.8173110006573197,0.5572610856676334 -0.8173110006573197,0.9101939458238846 c0,0.44580800307464585 0.35292400886631015,0.5944113919824119 0.6129859878363604,0.5944113919824119 c0.5572600366258627,0 0.9473310079863069,-0.48295942399630576 0.9473310079863069,-0.9844956074952123 c0,-0.7801650872049564 -0.8916160061492917,-1.1330967671892154 -1.6717690949389947,-1.1330967671892154 c-1.1330989964029783,0 -1.7646639729557023,1.1145221713352669 -1.9318420232825275,1.4674550970566287 c-0.4272399965143201,-1.3931533042550797 -1.5789069994776241,-1.4674550970566287 -1.9132739839396464,-1.4674550970566287 c-1.894673030911207,0 -2.8977520855503087,2.433372764877248 -2.8977520855503087,2.8420314451137756 c0,0.07430500549197205 0.07425000455975539,0.16717909936859598 0.20433601136827484,0.16717909936859598 c0.14859899604535087,0 0.18574600771331795,-0.11145750004231925 0.22290400153732293,-0.18575371161382215 c0.6315650421178347,-2.06186642347393 1.8761049915683259,-2.4519507701169516 2.4147861050429356,-2.4519507701169516 c0.8359010043122765,0 1.003078989073991,0.7801673164187193 1.003078989073991,1.2259753850584758 c0,0.40865881136674886 -0.1115180002481937,0.8358911039805648 -0.3343560023059844,1.7275104539505008 l-0.6315650421178347,2.544824798428465 c-0.2786300183129313,1.114523351507259 -0.8173220155959129,2.136167036103487 -1.8018000516414645,2.136167036103487 c-0.09295000188350677,0 -0.5572820009379384,0 -0.9473530378634933,-0.24147859739127142 c0.6687009896733755,-0.13003320230751036 0.8173220155959129,-0.6872899442865616 0.8173220155959129,-0.9101939458238846 c0,-0.3715074232276443 -0.2786300183129313,-0.5944113919824119 -0.6315759914913173,-0.5944113919824119 c-0.44579702091860796,0 -0.9287630342085365,0.3900820190815928 -0.9287630342085365,0.9844944928883308 c0,0.7801662018118378 0.873037017432928,1.1330979473612075 1.6717909936859598,1.1330979473612075 c0.8916160061492917,0 1.5231699677634225,-0.7058645401405101 1.9132631001312745,-1.4674550970566287 c0.29719799209070175,1.0959465264395476 1.2259719756727208,1.4674550970566287 1.9132520851926813,1.4674550970566287 c1.8946950607883934,0 2.897763100488902,-2.4333748629607896 2.897763100488902,-2.8420314451137756 c0,-0.09288400240397454 -0.07425000455975539,-0.16717909936859598 -0.18575700626063352,-0.16717909936859598 c-0.16716700260567663,0 -0.18574600771331795,0.09288400240397454 -0.24147200809764868,0.24147971199815288 c-0.5015340198502543,1.6346330162532325 -1.5789180144162174,2.3962225241275803 -2.414808134920122,2.3962225241275803 c-0.6501440308341984,0 -1.0030570247619153,-0.4829583093894243 -1.0030570247619153,-1.2445499809124243 c0,-0.4086576967598674 0.07425000455975539,-0.7058623109267472 0.3714920154266359,-1.931837695985223 l0.6501440308341984,-2.5262502025745164 c0.2786300183129313,-1.1145221713352669 0.9101949948656554,-1.9318397940687646 1.7646639729557023,-1.9318397940687646 c0.03707000134766103,0 0.5572600366258627,0 0.9473420229249001,0.24148081021375667 z" id="use28728" stroke-width="0"/>
      <path inkscape:connector-curvature="0" d="m44.61465581990342,149.75985721739653 c0.03707000134766103,-0.18575480982942594 0.16099599799776065,-0.6563304268518451 0.19814300966572773,-0.8420830074675081 c0.1733710028555393,-0.6687131192188502 0.1733710028555393,-0.6810969261927369 0.4582050214183333,-1.0897557375594857 c0.4086499928593632,-0.6067951989562985 0.9906710541393764,-1.1516735922569268 1.8203680909843456,-1.1516735922569268 c0.4458190180132391,0 0.7058700476098068,0.26005540606770516 0.7058700476098068,0.8420841220743895 c0,0.6810969261927369 -0.52010202641058,2.092824826301765 -0.7553920313529972,2.699621139864945 c-0.1609849994504451,0.4086576967598674 -0.1609849994504451,0.4829583093894243 -0.1609849994504451,0.643945505271077 c0,0.7058645401405101 0.5820210284974578,1.0526054312447073 1.1145200732517253,1.0526054312447073 c1.2135860706152926,0 1.7213239923677435,-1.7337022918723335 1.7213239923677435,-1.894688504277326 c0,-0.1238325049000979 -0.09900000607967385,-0.16098719588165267 -0.18576800480794908,-0.16098719588165267 c-0.1485879974980353,0 -0.1733710028555393,0.08668000215411187 -0.21050699958491315,0.21052130917031775 c-0.297209007029295,1.0154540103230474 -0.8173330305345061,1.4984133687542425 -1.287891010542154,1.4984133687542425 c-0.19814300966572773,0 -0.297209007029295,-0.1238325049000979 -0.297209007029295,-0.40865881136674886 c0,-0.28482192179987464 0.09900000607967385,-0.5572610856676334 0.22290400153732293,-0.8668506214152814 c0.18574600771331795,-0.4705756170224191 0.730631039481402,-1.894687324105334 0.730631039481402,-2.5881680572719574 c0,-0.9287685416778331 -0.6439510127403736,-1.3745764791873682 -1.5355780338282585,-1.3745764791873682 c-1.0030570247619153,0 -1.6470080375022889,0.6067940843494171 -2.006136079401017,1.0773697013718362 c-0.08668000215411187,-0.6810969261927369 -0.6315650421178347,-1.0773697013718362 -1.2631190692970762,-1.0773697013718362 c-0.44580800307464585,0 -0.7553920313529972,0.2848208071929932 -0.9535350410187249,0.6687131192188502 c-0.29719799209070175,0.5820275850085253 -0.42104701120305066,1.2012065909387104 -0.42104701120305066,1.225973155844713 c0,0.11145750004231925 0.08668000215411187,0.16098719588165267 0.18575700626063352,0.16098719588165267 c0.1609849994504451,0 0.17336000430822374,-0.04952200013446806 0.26006201175260557,-0.3715074232276443 c0.1485879974980353,-0.60679631356318 0.3715029975826738,-1.3374272874794713 0.8916160061492917,-1.3374272874794713 c0.3219699989008902,0 0.39627500439286223,0.3095895029650926 0.39627500439286223,0.5820298142222882 c0,0.22290400153732293 -0.06182000286757949,0.45819069544165103 -0.1609849994504451,0.8668495068083999 c-0.024750001519918463,0.09906600555920608 -0.21052899667954428,0.8296992004936214 -0.26005101320529,1.0030702033491607 l-0.4582160035743712,1.8575370833556661 c-0.049500003039836926,0.18575371161382215 -0.12388200655865678,0.49534319818763706 -0.12388200655865678,0.5448773114763021 c0,0.28482300362420077 0.23529000494241714,0.38389231202585705 0.39627500439286223,0.38389231202585705 c0.22290400153732293,0 0.40866100779795644,-0.1486034052990437 0.4953410017564295,-0.2972068105980874 c0.03717999911427494,-0.07430500549197205 0.13626800176811216,-0.4953443127945185 0.19814300966572773,-0.7553985878640646 l0.28481202146816287,-1.1021383643613802 z" id="use28730" stroke-width="0"/>
    </g>
    <g id="g35345" class="">
      <rect y="14.828907012939453" x="188.76681518554688" height="23.52257537841797" width="23.52257537841797" id="rect20371-5" style="fill:none;fill-opacity:1;stroke:#000000;stroke-width:1;stroke-miterlimit:4;stroke-dasharray:none;stroke-dashoffset:0;stroke-opacity:1"/>
      <g id="g29544">
        <path id="use27611" d="m200.03475952148438,20.93306828805271 c0.01687500043772161,-0.06754625767165434 0.05062500014901161,-0.16886701555175776 0.05062500014901161,-0.25330052332763664 c0,-0.16886701555175776 -0.1688624918460846,-0.16886701555175776 -0.20263750106096268,-0.16886701555175776 c-0.01687500043772161,0 -0.6248125061392784,0.05066000408267968 -0.9287624806165695,0.084433759232998 c-0.2870750054717064,0.016886251260668006 -0.5403750017285347,0.05066000408267968 -0.8443374931812286,0.06754625767165434 c-0.4052874818444252,0.03377375282201167 -0.5234875157475471,0.05066000408267968 -0.5234875157475471,0.3546207736368885 c0,0.16886701555175776 0.1688624918460846,0.16886701555175776 0.3377249836921692,0.16886701555175776 c0.8612249791622162,0 0.8612249791622162,0.15198026370515816 0.8612249791622162,0.32084728857014255 c0,0.1182062570977207 -0.135087501257658,0.6079213155909784 -0.20263750106096268,0.911881861627748 l-0.40527500212192535,1.621123408901525 c-0.16887500882148743,0.675468062207031 -1.131412535905838,4.508749080538621 -1.1989624798297882,4.812710446139334 c-0.08437500335276127,0.42216755750584767 -0.08437500335276127,0.7092413237563377 -0.08437500335276127,0.9287675610797379 c0,1.722445205206398 0.9625499695539474,2.617440175289147 2.0601874589920044,2.617440175289147 c1.9588500261306763,0 3.9852499961853027,-2.5161191240424046 3.9852499961853027,-4.964690979928065 c0,-1.5535765877796592 -0.8781000226736069,-2.6512121702396314 -2.1446000039577484,-2.6512121702396314 c-0.8781124651432037,0 -1.6717875003814697,0.7261282153013369 -1.9926375150680542,1.0638622464048524 l1.2327250093221664,-4.914030007269815 zm-1.0638625174760818,11.1283360603652 c-0.5403624847531319,0 -1.1314000189304352,-0.4052800326614374 -1.1314000189304352,-1.7224426720087536 c0,-0.5572613115082987 0.05062500014901161,-0.8781088235958805 0.3546125069260597,-2.0601781187227175 c0.05062500014901161,-0.21952715001961032 0.3208500146865845,-1.3002761948371955 0.38839999586343765,-1.5198031027129133 c0.03375000087544322,-0.13509364224373144 1.0300874710083008,-1.638010151434898 2.1783874928951263,-1.638010151434898 c0.7430125027894974,0 1.0807500034570694,0.7430149578347098 1.0807500034570694,1.621123408901525 c0,0.8105617044507625 -0.47283750027418137,2.7187591403731233 -0.8950000256299973,3.5968679639690038 c-0.4221624881029129,0.9118813400870565 -1.1989499628543854,1.7224426720087536 -1.9757500290870667,1.7224426720087536 z" inkscape:connector-curvature="0" stroke-width="0"/>
      </g>
    </g>
    <path id="use27503" d="m8.474220275878906,80.86387634277344 l3.0815529823303223,-3.5331499576568604 c0.29221001267433167,-0.3453499972820282 0.5313000082969666,-0.5578600168228149 2.7361900806427,-0.5578600168228149 l0,-1.142300009727478 c-1.4876400232315063,0.053199999034404755 -1.5407700538635254,0.053199999034404755 -2.4439799785614014,0.053199999034404755 c-0.7703930139541626,0 -1.9126830101013184,0 -2.6565029621124268,-0.053199999034404755 l0,1.142300009727478 c0.5047299861907959,0 1.062600016593933,0.13277000188827515 1.062600016593933,0.31878000497817993 c0,0.053199999034404755 -0.1328199952840805,0.23907999694347382 -0.18595999479293823,0.29221001267433167 l-2.311150074005127,2.603369951248169 l-2.6299400329589844,-3.214359998703003 l1.1157300472259521,0 l0,-1.142300009727478 c-0.6110000014305115,0.053199999034404755 -2.417419910430908,0.053199999034404755 -3.1346800327301025,0.053199999034404755 c-0.7969499826431274,0 -2.2314600944519043,0 -2.9752800464630127,-0.053199999034404755 l0,1.142300009727478 l1.8861199617385864,0 l4.144139766693115,5.04734992980957 l-3.4534499645233154,3.905050039291382 c-0.31878000497817993,0.37191998958587646 -0.5047399997711182,0.5578799843788147 -2.7096400260925293,0.5578799843788147 l0,1.1422899961471558 c1.5939099788665771,-0.053199999034404755 1.6470400094985962,-0.053199999034404755 2.470550060272217,-0.053199999034404755 c0.770389974117279,0 1.8861199617385864,0 2.6299400329589844,0.053199999034404755 l0,-1.1422899961471558 c-0.5047399997711182,0 -1.062600016593933,-0.13277000188827515 -1.062600016593933,-0.3187899887561798 c0,-0.026599999517202377 0,-0.053199999034404755 0.18594999611377716,-0.265639990568161 l2.6565101146698,-3.0018599033355713 l2.9487199783325195,3.586289882659912 l-1.1157399415969849,0 l0,1.1422899961471558 c0.6375700235366821,-0.053199999034404755 2.417419910430908,-0.053199999034404755 3.161252975463867,-0.053199999034404755 c0.7969499826431274,0 2.204890012741089,0 2.9487099647521973,0.053199999034404755 l0,-1.1422899961471558 l-1.8595499992370605,0 l-4.489492893218994,-5.419270038604736 z" inkscape:connector-curvature="0" class=""/>
    <path id="use35780" d="m210.23189544677734,93.10447692871094 l2.04328989982605,-5.403739929199219 l-0.4221700131893158,0 c-0.6585800051689148,1.7562099695205688 -2.4485700130462646,2.904510021209717 -4.39054012298584,3.4111099243164062 c-0.3546200096607208,0.0843999981880188 -2.0095200538635254,0.5234900116920471 -5.251760005950928,0.5234900116920471 l-10.182680130004883,0 l8.595330238342285,-10.08135986328125 c0.11819999665021896,-0.13508999347686768 0.15197999775409698,-0.18574999272823334 0.15197999775409698,-0.2701900005340576 c0,-0.033799998462200165 0,-0.0843999981880188 -0.11821000277996063,-0.2533000111579895 l-7.869200229644775,-10.756830215454102 l9.253910064697266,0 c2.26282000541687,0 3.7995100021362305,0.23642000555992126 3.9514899253845215,0.2701900005340576 c0.9118800163269043,0.13508999347686768 2.3810200691223145,0.4221700131893158 3.7150700092315674,1.2664999961853027 c0.4221700131893158,0.2701900005340576 1.5704699754714966,1.0300899744033813 2.144619941711426,2.3979101181030273 l0.42215999960899353,0 l-2.04328989982605,-4.745160102844238 l-19.960079193115234,0 c-0.3883900046348572,0 -0.4052799940109253,0.016899999231100082 -0.45594000816345215,0.11821000277996063 c-0.016899999231100082,0.050700001418590546 -0.016899999231100082,0.37150999903678894 -0.016899999231100082,0.5572599768638611 l8.933070182800293,12.225970268249512 l-8.747320175170898,10.250229835510254 c-0.16886000335216522,0.20263999700546265 -0.16886000335216522,0.28707000613212585 -0.16886000335216522,0.30395999550819397 c0,0.18574999272823334 0.15197999775409698,0.18574999272823334 0.45594000816345215,0.18574999272823334 l19.960079193115234,0 z" inkscape:connector-curvature="0" class=""/>
    <g id="g36369" class="">
      <path inkscape:connector-curvature="0" d="m389.79810081978553,78.46907587826263 c0.4807622890647245,0 0.6730650835257173,0 0.6730650835257173,-0.45672272548408444 c0,-0.24038041253479747 -0.19230278120371214,-0.24038041253479747 -0.6249884569008266,-0.24038041253479747 l-1.9470811060766522,0 C388.35581729342607,75.29605776303197 388.6923494374705,73.58935163187834 388.8846559439701,72.82013923286922 C389.02889176310646,72.24322314588517 389.53368149451353,71.69034918869966 390.1586717013754,71.69034918869966 c0.5047978978919261,0 1.0095975987740147,0.21634229969200724 1.2499769138016532,0.43268478498593055 c-0.9374836133608824,0.09615138416014357 -1.2259395550134116,0.7932553772735673 -1.2259395550134116,1.2019021157031062 c0,0.48076082506959494 0.3605699270656615,0.7692172776880568 0.8172930543519819,0.7692172776880568 c0.4807622890647245,0 1.20190219622517,-0.4086466588858606 1.20190219622517,-1.3220922954559455 c0,-1.0095977432519732 -1.0095975987740147,-1.5624726549616241 -2.06727182417292,-1.5624726549616241 c-1.0336349575622563,0 -2.043232662394516,0.7692172776880568 -2.5239929893817106,1.7067010403582117 c-0.4326856889543951,0.8413314703863506 -0.6730668334867573,1.7067008282417362 -1.225941358003574,4.855684237750495 l-1.6105486438574772,0 c-0.45672307425719794,0 -0.6971024423139589,0 -0.6971024423139589,0.43268478498593055 c0,0.26441835303295136 0.14423508998595036,0.26441835303295136 0.6249884569008266,0.26441835303295136 l1.538434658444345,0 c-0.4326839124787938,2.23553795854059 -1.4182441524645668,7.668135313644484 -1.9711185709231387,10.24020624214927 c-0.4086483036515922,2.091308936794576 -0.7692182307172537,3.8460857520908576 -1.971120479971546,3.8460857520908576 c-0.07211754499297518,0 -0.7692182307172537,0 -1.20190219622517,-0.4567230436587977 c1.2259395550134116,-0.09615672021523025 1.2259395550134116,-1.1538254922991342 1.2259395550134116,-1.1778628494769805 c0,-0.48076225685580454 -0.3605699270656615,-0.7692181791830777 -0.8172930543519819,-0.7692181791830777 c-0.480760486074562,0 -1.20190219622517,0.408646499798504 -1.20190219622517,1.3220926136306588 c0,1.033634888313344 1.0576742253989053,1.5624720186121976 1.9951577327015428,1.5624720186121976 c2.4518808069587408,0 3.4614785117910003,-4.398961830441124 3.725896988597043,-5.600863840085992 c0.4326839124787938,-1.8509279409394708 1.6105486438574772,-8.24504715829903 1.7307392558955002,-8.966188873165493 l2.043232662394516,0 z" id="use35782" stroke-width="0"/>
      <path inkscape:connector-curvature="0" d="m401.0575156024977,93.97361256630074 c0,-0.07211754016142269 0,-0.12019590689767767 -0.4086465271759909,-0.5288370772697348 c-2.40380439245034,-2.427841482525821 -3.7499344534435295,-6.394117520427756 -3.7499344534435295,-11.297879230048125 c0,-4.663379441066411 1.1297882108120376,-8.677732526605269 3.9182013739317085,-11.514221065735342 c0.24037936805676097,-0.2163424852939233 0.24037936805676097,-0.2644185386348674 0.24037936805676097,-0.3365326783040423 c0,-0.14422796116363656 -0.1201959149502656,-0.19230437245113308 -0.2163419562393969,-0.19230437245113308 c-0.31249512994549455,0 -2.283613674354072,1.7307391399437222 -3.4614785117910003,4.086467172178914 c-1.2259395550134116,2.427842330991723 -1.778815776462146,4.999912835263558 -1.778815776462146,7.956590811738806 c0,2.139385560198548 0.3365343182384599,4.999912835263558 1.5865112850692356,7.571983763768344 c1.4182441524645668,2.8845645261846187 3.389364420319623,4.447036756913292 3.653782897125666,4.447036756913292 c0.09615672665730024,0 0.2163419562393969,-0.048078360107615126 0.2163419562393969,-0.19230454479576942 z" id="use35784" stroke-width="0"/>
      <path inkscape:connector-curvature="0" d="m410.49927194321094,82.19497473840602 l2.7884133752361606,-3.19705960867978 c0.26441855634972633,-0.31249439311661575 0.480760486074562,-0.5047987655677488 2.4759182718052273,-0.5047987655677488 l0,-1.0336358428374837 c-1.3461301670514345,0.04807658031781292 -1.3942066876180803,0.04807658031781292 -2.2114997949991846,0.04807658031781292 c-0.6971042453041214,0 -1.7307392558955002,0 -2.40380439245034,-0.04807658031781292 l0,1.0336358428374837 c0.45672132429615786,0 0.961520972149124,0.12019056421395113 0.961520972149124,0.28845645261846187 c0,0.04807658031781292 -0.1201959149502656,0.21634229969200724 -0.16827427827891572,0.2644185386348674 l-2.091309076902917,2.355727820118716 l-2.3797669276038533,-2.908602625770129 l1.0095994017641772,0 l0,-1.0336358428374837 c-0.5528762744778568,0.04807658031781292 -2.187462330152698,0.04807658031781292 -2.8364900018610513,0.04807658031781292 c-0.7211416571214855,0 -2.0191951975480293,0 -2.692260334102869,-0.04807658031781292 l0,1.0336358428374837 l1.706700094117096,0 l3.749936150375447,4.567227891190271 l-3.1249459435135805,3.533592154411025 c-0.2884577181281305,0.3365325192166857 -0.45672307425719794,0.504797864072728 -2.4518808069587408,0.504797864072728 l0,1.0336366913033856 c1.442283314242971,-0.048078360107615126 1.490358137877699,-0.048078360107615126 2.2355370477291814,-0.048078360107615126 c0.6971042453041214,0 1.7067017910490137,0 2.3797669276038533,0.048078360107615126 l0,-1.0336366913033856 c-0.45672307425719794,0 -0.961520972149124,-0.12019590689767767 -0.961520972149124,-0.28845592232727313 c0,-0.024039180053807563 0,-0.048078360107615126 0.16827427827891572,-0.24037935195242 l2.40380439245034,-2.7162993139013736 l2.6682228692563825,3.245134535151948 l-1.0095975987740147,0 l0,1.0336366913033856 c0.5769136862952209,-0.048078360107615126 2.187462330152698,-0.048078360107615126 2.8605274667075378,-0.048078360107615126 c0.7211416571214855,0 1.9951577327015428,0 2.6682228692563825,0.048078360107615126 l0,-1.0336366913033856 l-1.6826626292706095,0 l-4.062429556874463,-4.903759588455614 z" id="use35786" stroke-width="0"/>
      <path inkscape:connector-curvature="0" d="m423.4497676223207,82.14689726653614 c0,-1.8268906898198622 -0.24038114453236226,-4.807607614346523 -1.5865112850692356,-7.596020802771477 c-1.4182441524645668,-2.8845649504175697 -3.389364420319623,-4.447037605379194 -3.653782897125666,-4.447037605379194 c-0.09615672665730024,0 -0.2163419562393969,0.04807658031781292 -0.2163419562393969,0.19230437245113308 c0,0.07211398058181828 0,0.12019056421395113 0.4086465271759909,0.5288368651532593 c2.40380439245034,2.427842330991723 3.7499344534435295,6.39411921735956 3.7499344534435295,11.297879230048125 c0,4.663380289532313 -1.1297882108120376,8.67773337507117 -3.9182013739317085,11.514221065735342 c-0.24037936805676097,0.21634371822093712 -0.24037936805676097,0.2644185386348674 -0.24037936805676097,0.3365325192166857 c0,0.14423508032284538 0.1201959149502656,0.19230454479576942 0.2163419562393969,0.19230454479576942 c0.31249512994549455,0 2.283613674354072,-1.7307391399437222 3.4614785117910003,-4.086466747945963 c1.2259395550134116,-2.451880642693709 1.778815776462146,-5.04798945866753 1.778815776462146,-7.932553772735673 z" id="use35788" stroke-width="0"/>
    </g>
    <path id="use35792" d="m254.64604949951172,116.97978210449219 c0,-0.050700001418590546 0,-0.0843999981880188 -0.28707000613212585,-0.37150999903678894 c-1.688670039176941,-1.7055599689483643 -2.6343300342559814,-4.4918599128723145 -2.6343300342559814,-7.9367499351501465 c0,-3.276020050048828 0.7936800122261047,-6.096099853515625 2.752540111541748,-8.088729858398438 c0.16886000335216522,-0.15197999775409698 0.16886000335216522,-0.18574999272823334 0.16886000335216522,-0.2364100068807602 c0,-0.10131999850273132 -0.0843999981880188,-0.13508999347686768 -0.15197999775409698,-0.13508999347686768 c-0.21952000260353088,0 -1.6042300462722778,1.2158399820327759 -2.4316799640655518,2.8707399368286133 c-0.8612200021743774,1.705549955368042 -1.249619960784912,3.51242995262146 -1.249619960784912,5.589489936828613 c0,1.5029200315475464 0.23642000555992126,3.5124399662017822 1.1145299673080444,5.319310188293457 c0.9963099956512451,2.0264101028442383 2.3810200691223145,3.124039888381958 2.566770076751709,3.124039888381958 c0.06759999692440033,0 0.15197999775409698,-0.033799998462200165 0.15197999775409698,-0.13508999347686768 z" inkscape:connector-curvature="0" class=""/>
    <path id="use35794" d="m261.27831268310547,108.70530700683594 l1.9588500261306763,-2.2459299564361572 c0.1857600063085556,-0.21953000128269196 0.3377400040626526,-0.3546299934387207 1.7393300533294678,-0.3546299934387207 l0,-0.7261199951171875 c-0.9456499814987183,0.033799998462200165 -0.9794300198554993,0.033799998462200165 -1.553570032119751,0.033799998462200165 c-0.4897199869155884,0 -1.2158499956130981,0 -1.688670039176941,-0.033799998462200165 l0,0.7261199951171875 c0.3208400011062622,0 0.6754599809646606,0.0843999981880188 0.6754599809646606,0.20264999568462372 c0,0.033799998462200165 -0.0843999981880188,0.15197999775409698 -0.11821000277996063,0.18574999272823334 l-1.4691400527954102,1.6548999547958374 l-1.671779990196228,-2.043299913406372 l0.7092400193214417,0 l0,-0.7261199951171875 c-0.38839998841285706,0.033799998462200165 -1.5366899967193604,0.033799998462200165 -1.9926300048828125,0.033799998462200165 c-0.506600022315979,0 -1.4184900522232056,0 -1.8913099765777588,-0.033799998462200165 l0,0.7261199951171875 l1.1989500522613525,0 l2.6343300342559814,3.208479881286621 l-2.19527006149292,2.482340097427368 c-0.20263999700546265,0.23642000555992126 -0.3208500146865845,0.3546200096607208 -1.7224500179290771,0.3546200096607208 l0,0.7261300086975098 c1.0132100582122803,-0.033799998462200165 1.0469800233840942,-0.033799998462200165 1.5704699754714966,-0.033799998462200165 c0.4897100031375885,0 1.1989500522613525,0 1.671779990196228,0.033799998462200165 l0,-0.7261300086975098 c-0.3208500146865845,0 -0.6754699945449829,-0.0843999981880188 -0.6754699945449829,-0.20263999700546265 c0,-0.016899999231100082 0,-0.033799998462200165 0.11819999665021896,-0.16886000335216522 l1.688670039176941,-1.9082000255584717 l1.8744299411773682,2.2797000408172607 l-0.7092499732971191,0 l0,0.7261300086975098 c0.40529000759124756,-0.033799998462200165 1.5367000102996826,-0.033799998462200165 2.0095200538635254,-0.033799998462200165 c0.506600022315979,0 1.4016000032424927,0 1.8744299411773682,0.033799998462200165 l0,-0.7261300086975098 l-1.182070016860962,0 l-2.8538498878479004,-3.4448800086975098 z" inkscape:connector-curvature="0" class=""/>
    <path id="use35796" d="m270.3760299682617,108.67152404785156 c0,-1.2833900451660156 -0.16886000335216522,-3.377340078353882 -1.1145199537277222,-5.336190223693848 c-0.9963099956512451,-2.0264101028442383 -2.3810200691223145,-3.124039888381958 -2.566770076751709,-3.124039888381958 c-0.06759999692440033,0 -0.15197999775409698,0.033799998462200165 -0.15197999775409698,0.13508999347686768 c0,0.050700001418590546 0,0.0843999981880188 0.28707000613212585,0.37150999903678894 c1.688670039176941,1.705549955368042 2.634320020675659,4.4918599128723145 2.634320020675659,7.9367499351501465 c0,3.276020050048828 -0.7936699986457825,6.096089839935303 -2.752530097961426,8.088720321655273 c-0.16886000335216522,0.15198999643325806 -0.16886000335216522,0.1857600063085556 -0.16886000335216522,0.23642000555992126 c0,0.10131999850273132 0.0843999981880188,0.13508999347686768 0.15197999775409698,0.13508999347686768 c0.21952000260353088,0 1.6042300462722778,-1.2158399820327759 2.4316799640655518,-2.8707399368286133 c0.8612200021743774,-1.7224400043487549 1.2496099472045898,-3.5462000370025635 1.2496099472045898,-5.572609901428223 z" inkscape:connector-curvature="0" class=""/>
    <circle r="31.909408569335938" cy="83.07017517089844" cx="313.0752258300781" id="circle36431" style="fill:none;fill-opacity:1;stroke:#000000;stroke-width:0.90056282;stroke-miterlimit:4;stroke-dasharray:none;stroke-dashoffset:0;stroke-opacity:1" class=""/>
    <path sodipodi:nodetypes="cc" inkscape:connector-curvature="0" id="path37519" d="m346.2120590209961,83.70729064941406 l28.007610321044922,0.32471001148223877 " style="opacity:0.5;fill:none;fill-rule:evenodd;stroke:#000000;stroke-width:0.7206502;stroke-linecap:butt;stroke-linejoin:miter;stroke-miterlimit:4;stroke-dasharray:none;stroke-dashoffset:0;stroke-opacity:1;marker-end:url(#marker37521)" class=""/>
    <path id="use28666" d="m128.37419891357422,144.1571502685547 c0.03370000049471855,-0.16886000335216522 0.14635999500751495,-0.5966600179672241 0.18012000620365143,-0.765529990196228 c0.1576099991798401,-0.6079199910163879 0.1576099991798401,-0.6191800236701965 0.41655001044273376,-0.9906799793243408 c0.3714999854564667,-0.551639974117279 0.9006100296974182,-1.0469800233840942 1.6548899412155151,-1.0469800233840942 c0.40529000759124756,0 0.641700029373169,0.2364100068807602 0.641700029373169,0.765529990196228 c0,0.6191800236701965 -0.47282999753952026,1.9025700092315674 -0.6867300271987915,2.454200029373169 c-0.14634999632835388,0.37150999903678894 -0.14634999632835388,0.4390600025653839 -0.14634999632835388,0.5854099988937378 c0,0.6416900157928467 0.5291200280189514,0.9569100141525269 1.013200044631958,0.9569100141525269 c1.1032700538635254,0 1.5648399591445923,-1.5760899782180786 1.5648399591445923,-1.7224400043487549 c0,-0.11258000135421753 -0.09000000357627869,-0.14634999632835388 -0.1688700020313263,-0.14634999632835388 c-0.13508999347686768,0 -0.15761999785900116,0.07880000025033951 -0.19137999415397644,0.19137999415397644 c-0.2701900005340576,0.9231399893760681 -0.7430199980735779,1.3621900081634521 -1.1708099842071533,1.3621900081634521 c-0.1801300048828125,0 -0.2701900005340576,-0.11257000267505646 -0.2701900005340576,-0.37150999903678894 c0,-0.25892001390457153 0.09000000357627869,-0.506600022315979 0.20263999700546265,-0.7880399823188782 c0.16886000335216522,-0.4277999997138977 0.6642100214958191,-1.7224400043487549 0.6642100214958191,-2.3528800010681152 c0,-0.8443400263786316 -0.5854099988937378,-1.249619960784912 -1.3959699869155884,-1.249619960784912 c-0.9118800163269043,0 -1.497290015220642,0.5516300201416016 -1.8237700462341309,0.9794300198554993 c-0.0786999985575676,-0.6191800236701965 -0.574150025844574,-0.9794300198554993 -1.1482800245285034,-0.9794300198554993 c-0.40529000759124756,0 -0.6867300271987915,0.2589299976825714 -0.8668500185012817,0.6079199910163879 c-0.2701900005340576,0.5291200280189514 -0.382779985666275,1.0920100212097168 -0.382779985666275,1.1145299673080444 c0,0.10131999850273132 0.07880000025033951,0.14634999632835388 0.16888000071048737,0.14634999632835388 c0.14634999632835388,0 0.15760000050067902,-0.04500000178813934 0.2364100068807602,-0.3377400040626526 c0.13508999347686768,-0.5516300201416016 0.3377400040626526,-1.2158399820327759 0.8105599880218506,-1.2158399820327759 c0.29269999265670776,0 0.36024999618530273,0.28143998980522156 0.36024999618530273,0.5291200280189514 c0,0.20263999700546265 -0.056299999356269836,0.4165399968624115 -0.14634999632835388,0.7880399823188782 c-0.02250000089406967,0.09009999781847 -0.1913899928331375,0.7542799711227417 -0.2364100068807602,0.9118899703025818 l-0.41655001044273376,1.688670039176941 c-0.04500000178813934,0.16886000335216522 -0.11263000220060349,0.45030999183654785 -0.11263000220060349,0.4953399896621704 c0,0.2589299976825714 0.21389999985694885,0.34898999333381653 0.36024999618530273,0.34898999333381653 c0.20263999700546265,0 0.3715200126171112,-0.13508999347686768 0.4503200054168701,-0.2701900005340576 c0.03370000049471855,-0.06759999692440033 0.12387000024318695,-0.45030999183654785 0.18012000620365143,-0.6867200136184692 l0.2589299976825714,-1.0019500255584717 z" inkscape:connector-curvature="0" class=""/>
    <path id="use28650" d="m131.05681610107422,37.07830047607422 c0,-1.2045899629592896 -0.12387999892234802,-1.9363399744033813 -0.4953399896621704,-2.6568400859832764 c-0.4953399896621704,-0.9906899929046631 -1.407230019569397,-1.238360047340393 -2.026400089263916,-1.238360047340393 c-1.4184900522232056,0 -1.9363499879837036,1.0582400560379028 -2.093950033187866,1.3734500408172607 c-0.40529000759124756,0.8218200206756592 -0.4277999997138977,1.9363399744033813 -0.4277999997138977,2.521749973297119 c0,0.7430099844932556 0.03370000049471855,1.8800499439239502 0.574150025844574,2.780679941177368 c0.5178499817848206,0.8330699801445007 1.3509399890899658,1.046970009803772 1.94760000705719,1.046970009803772 c0.540369987487793,0 1.5085400342941284,-0.16886000335216522 2.0714399814605713,-1.2833900451660156 c0.4165300130844116,-0.8105599880218506 0.450300008058548,-1.8125 0.450300008058548,-2.544260025024414 zm-2.521739959716797,3.51242995262146 c-0.382779985666275,0 -1.159559965133667,-0.18012000620365143 -1.3959800004959106,-1.3621900081634521 c-0.12387000024318695,-0.641700029373169 -0.12387000024318695,-1.69992995262146 -0.12387000024318695,-2.285330057144165 c0,-0.7767900228500366 0,-1.5648399591445923 0.12387000024318695,-2.1840200424194336 c0.23642000555992126,-1.1482900381088257 1.1145299673080444,-1.2608699798583984 1.3959800004959106,-1.2608699798583984 c0.3827599883079529,0 1.1595499515533447,0.19137999415397644 1.3846999406814575,1.2158399820327759 c0.13510000705718994,0.6191800236701965 0.13510000705718994,1.4635200500488281 0.13510000705718994,2.2290499210357666 c0,0.6642100214958191 0,1.6774100065231323 -0.13510000705718994,2.307849884033203 c-0.2364100068807602,1.1820600032806396 -1.013200044631958,1.339669942855835 -1.3846999406814575,1.339669942855835 z" inkscape:connector-curvature="0" class=""/>
    <path id="use9054" d="m242.54967498779297,111.60885620117188 c0.7261300086975098,-0.8274499773979187 1.3171600103378296,-1.3509399890899658 2.1614999771118164,-2.110840082168579 c1.013200044631958,-0.8781099915504456 1.4522600173950195,-1.3002699613571167 1.688670039176941,-1.553570032119751 c1.182070016860962,-1.1651899814605713 1.7731000185012817,-2.1446099281311035 1.7731000185012817,-2.279710054397583 c0,-0.13508999347686768 -0.13508999347686768,-0.13508999347686768 -0.16886000335216522,-0.13508999347686768 c-0.11821000277996063,0 -0.15197999775409698,0.06759999692440033 -0.23642000555992126,0.18574999272823334 c-0.42215999960899353,0.7261300086975098 -0.8274499773979187,1.0807499885559082 -1.2664999961853027,1.0807499885559082 c-0.3546200096607208,0 -0.540369987487793,-0.15197999775409698 -0.8612200021743774,-0.5572599768638611 c-0.3546200096607208,-0.4221700131893158 -0.641700029373169,-0.7092400193214417 -1.131410002708435,-0.7092400193214417 c-1.2327300310134888,0 -1.9757399559020996,1.5366899967193604 -1.9757399559020996,1.8913099765777588 c0,0.050700001418590546 0.016899999231100082,0.15197999775409698 0.16886000335216522,0.15197999775409698 c0.13510000705718994,0 0.15197999775409698,-0.06759999692440033 0.20263999700546265,-0.18574999272823334 c0.28707998991012573,-0.6754699945449829 1.097640037536621,-0.7936800122261047 1.4184900522232056,-0.7936800122261047 c0.3546200096607208,0 0.6923499703407288,0.11819999665021896 1.046970009803772,0.2701900005340576 c0.641700029373169,0.27017998695373535 0.9118800163269043,0.27017998695373535 1.0807499885559082,0.27017998695373535 c0.11821000277996063,0 0.18574999272823334,0 0.2701900005340576,-0.016899999231100082 c-0.5572599768638611,0.6585900187492371 -1.4691499471664429,1.4691499471664429 -2.2290499210357666,2.1614999771118164 l-1.705549955368042,1.5704699754714966 c-1.0300899744033813,1.046970009803772 -1.6548999547958374,2.04328989982605 -1.6548999547958374,2.161489963531494 c0,0.1013299971818924 0.0843999981880188,0.13510000705718994 0.18574999272823334,0.13510000705718994 c0.10131999850273132,0 0.11821000277996063,-0.016899999231100082 0.23642000555992126,-0.21953000128269196 c0.27017998695373535,-0.4221700131893158 0.8105599880218506,-1.0469800233840942 1.4353699684143066,-1.0469800233840942 c0.3546200096607208,0 0.5234799981117249,0.1182200014591217 0.8612200021743774,0.5403800010681152 c0.3208500146865845,0.37150999903678894 0.6079199910163879,0.7261300086975098 1.1482900381088257,0.7261300086975098 c1.6548999547958374,0 2.600559949874878,-2.1446099281311035 2.600559949874878,-2.5330100059509277 c0,-0.06759999692440033 -0.016899999231100082,-0.1688700020313263 -0.1857600063085556,-0.1688700020313263 c-0.13508999347686768,0 -0.15197999775409698,0.06750000268220901 -0.20263999700546265,0.23642000555992126 c-0.37150999903678894,0.9963099956512451 -1.3678200244903564,1.4015899896621704 -2.026400089263916,1.4015899896621704 c-0.3546200096607208,0 -0.692359983921051,-0.11821000277996063 -1.0469800233840942,-0.27017998695373535 c-0.6754699945449829,-0.2701900005340576 -0.8612200021743774,-0.2701900005340576 -1.0807499885559082,-0.2701900005340576 c-0.16886000335216522,0 -0.3546200096607208,0 -0.506600022315979,0.06759999692440033 z" inkscape:connector-curvature="0" class=""/>
    <path id="use3515" d="m117.31946563720703,34.88011169433594 c0.48770999908447266,1.33010995388031 1.862130045890808,1.5739699602127075 2.7045400142669678,1.5739699602127075 c1.684790015220642,0 2.6823599338531494,-1.4631099700927734 3.3030900955200195,-2.9927399158477783 c0.5098699927330017,-1.2857600450515747 1.3301000595092773,-4.211979866027832 1.3301000595092773,-5.519899845123291 c0,-1.3522900342941284 -0.6872199773788452,-1.4852800369262695 -0.8867499828338623,-1.4852800369262695 c-0.5320299863815308,0 -1.0197499990463257,0.5320199728012085 -1.0197499990463257,0.9753900170326233 c0,0.2660300135612488 0.15520000457763672,0.42122000455856323 0.26603999733924866,0.5098900198936462 c0.19950999319553375,0.19949999451637268 0.7759000062942505,0.798039972782135 0.7759000062942505,1.9507999420166016 c0,0.7537400126457214 -0.6207299828529358,2.8375399112701416 -1.0862699747085571,3.879460096359253 c-0.6207000017166138,1.3522800207138062 -1.4409300088882446,2.2390100955963135 -2.593679904937744,2.2390100955963135 c-1.2414300441741943,0 -1.6404500007629395,-0.9310799837112427 -1.6404500007629395,-1.950819969177246 c0,-0.6428800225257874 0.19949999451637268,-1.4187699556350708 0.2881599962711334,-1.795639991760254 l0.9310899972915649,-3.724260091781616 c0.11078999936580658,-0.4433799982070923 0.3103500008583069,-1.2192800045013428 0.3103500008583069,-1.3079400062561035 c0,-0.33254000544548035 -0.2660199999809265,-0.5542200207710266 -0.598550021648407,-0.5542200207710266 c-0.6428899765014648,0 -0.7980599999427795,0.5542200207710266 -0.9310500025749207,1.0862699747085571 c-0.22169999778270721,0.864549994468689 -1.1527700424194336,4.611000061035156 -1.2414400577545166,5.098700046539307 c-0.08860000222921371,0.3768700063228607 -0.08860000222921371,0.6207200288772583 -0.08860000222921371,1.1084200143814087 c0,0.532039999961853 -0.7093999981880188,1.3744399547576904 -0.7315599918365479,1.418779969215393 c-0.24386000633239746,0.2438499927520752 -0.5985299944877625,0.620710015296936 -1.2857600450515747,0.620710015296936 c-1.7512999773025513,0 -1.7512999773025513,-1.6626299619674683 -1.7512999773025513,-2.039489984512329 c0,-0.7093799710273743 0.1551699936389923,-1.6848000288009644 1.152750015258789,-4.32282018661499 c0.2660300135612488,-0.6872400045394897 0.37685999274253845,-0.975409984588623 0.37685999274253845,-1.4187899827957153 c0,-0.9310600161552429 -0.6650500297546387,-1.7734500169754028 -1.751289963722229,-1.7734500169754028 c-2.0394999980926514,0 -2.8597300052642822,3.214400053024292 -2.8597300052642822,3.3917500972747803 c0,0.08860000222921371 0.08869999647140503,0.19952000677585602 0.24387000501155853,0.19952000677585602 c0.19950999319553375,0 0.221670001745224,-0.08869999647140503 0.3103399872779846,-0.39902999997138977 c0.5542200207710266,-1.950819969177246 1.418779969215393,-2.748889923095703 2.2390100955963135,-2.748889923095703 c0.22168000042438507,0 0.5763999819755554,0.022199999541044235 0.5763999819755554,0.7315499782562256 c0,0.11079999804496765 0,0.5763999819755554 -0.3768799901008606,1.551800012588501 c-1.0419199466705322,2.7710399627685547 -1.2635999917984009,3.6799399852752686 -1.2635999917984009,4.522339820861816 c0,2.3276801109313965 1.9064799547195435,2.748879909515381 3.037060022354126,2.748879909515381 c0.37685999274253845,0 1.3744299411773682,0 2.2611799240112305,-1.5739699602127075 z" inkscape:connector-curvature="0" class=""/>
    <path inkscape:connector-curvature="0" d="m119.31946563720703,140.88011169433594 c0.48770999908447266,1.33010995388031 1.862130045890808,1.5739699602127075 2.7045400142669678,1.5739699602127075 c1.684790015220642,0 2.6823599338531494,-1.4631099700927734 3.3030900955200195,-2.9927399158477783 c0.5098699927330017,-1.2857600450515747 1.3301000595092773,-4.211979866027832 1.3301000595092773,-5.519899845123291 c0,-1.3522900342941284 -0.6872199773788452,-1.4852800369262695 -0.8867499828338623,-1.4852800369262695 c-0.5320299863815308,0 -1.0197499990463257,0.5320199728012085 -1.0197499990463257,0.9753900170326233 c0,0.2660300135612488 0.15520000457763672,0.42122000455856323 0.26603999733924866,0.5098900198936462 c0.19950999319553375,0.19949999451637268 0.7759000062942505,0.798039972782135 0.7759000062942505,1.9507999420166016 c0,0.7537400126457214 -0.6207299828529358,2.8375399112701416 -1.0862699747085571,3.879460096359253 c-0.6207000017166138,1.3522800207138062 -1.4409300088882446,2.2390100955963135 -2.593679904937744,2.2390100955963135 c-1.2414300441741943,0 -1.6404500007629395,-0.9310799837112427 -1.6404500007629395,-1.950819969177246 c0,-0.6428800225257874 0.19949999451637268,-1.4187699556350708 0.2881599962711334,-1.795639991760254 l0.9310899972915649,-3.724260091781616 c0.11078999936580658,-0.4433799982070923 0.3103500008583069,-1.2192800045013428 0.3103500008583069,-1.3079400062561035 c0,-0.33254000544548035 -0.2660199999809265,-0.5542200207710266 -0.598550021648407,-0.5542200207710266 c-0.6428899765014648,0 -0.7980599999427795,0.5542200207710266 -0.9310500025749207,1.0862699747085571 c-0.22169999778270721,0.864549994468689 -1.1527700424194336,4.611000061035156 -1.2414400577545166,5.098700046539307 c-0.08860000222921371,0.3768700063228607 -0.08860000222921371,0.6207200288772583 -0.08860000222921371,1.1084200143814087 c0,0.532039999961853 -0.7093999981880188,1.3744399547576904 -0.7315599918365479,1.418779969215393 c-0.24386000633239746,0.2438499927520752 -0.5985299944877625,0.620710015296936 -1.2857600450515747,0.620710015296936 c-1.7512999773025513,0 -1.7512999773025513,-1.6626299619674683 -1.7512999773025513,-2.039489984512329 c0,-0.7093799710273743 0.1551699936389923,-1.6848000288009644 1.152750015258789,-4.32282018661499 c0.2660300135612488,-0.6872400045394897 0.37685999274253845,-0.975409984588623 0.37685999274253845,-1.4187899827957153 c0,-0.9310600161552429 -0.6650500297546387,-1.7734500169754028 -1.751289963722229,-1.7734500169754028 c-2.0394999980926514,0 -2.8597300052642822,3.214400053024292 -2.8597300052642822,3.3917500972747803 c0,0.08860000222921371 0.08869999647140503,0.19952000677585602 0.24387000501155853,0.19952000677585602 c0.19950999319553375,0 0.221670001745224,-0.08869999647140503 0.3103399872779846,-0.39902999997138977 c0.5542200207710266,-1.950819969177246 1.418779969215393,-2.748889923095703 2.2390100955963135,-2.748889923095703 c0.22168000042438507,0 0.5763999819755554,0.022199999541044235 0.5763999819755554,0.7315499782562256 c0,0.11079999804496765 0,0.5763999819755554 -0.3768799901008606,1.551800012588501 c-1.0419199466705322,2.7710399627685547 -1.2635999917984009,3.6799399852752686 -1.2635999917984009,4.522339820861816 c0,2.3276801109313965 1.9064799547195435,2.748879909515381 3.037060022354126,2.748879909515381 c0.37685999274253845,0 1.3744299411773682,0 2.2611799240112305,-1.5739699602127075 z" id="path12765" class=""/>
  <rect fill="none" stroke="#e84141" style="color: rgb(0, 0, 0);" stroke-width="2" stroke-linejoin="round" stroke-dashoffset="" fill-rule="nonzero" id="svg_3" x="355" y="130" width="0" height="8"/><g class=""><path inkscape:connector-curvature="0" d="m126.11927604675293,80.8964262008667 c0,-0.3343571126461029 -0.0247500017285347,-0.3467409312725067 -0.35913902521133423,-0.3467409312725067 c-0.5077160000801086,0.4953432083129883 -1.1640421152114868,0.7925488948822021 -2.3404812812805176,0.7925488948822021 l0,0.40865880250930786 c0.3343450129032135,0 1.0030570030212402,0 1.7213021516799927,-0.33435600996017456 l0,6.352776050567627 c0,0.45819291472435 -0.037070002406835556,0.6067951917648315 -1.2135860919952393,0.6067951917648315 l-0.4334219992160797,0 l0,0.4086576998233795 c0.5077270269393921,-0.03715800121426582 1.5727249383926392,-0.03715800121426582 2.1299850940704346,-0.03715800121426582 c0.5572600364685059,0 1.6346219778060913,0 2.142359972000122,0.03715800121426582 l0,-0.4086576998233795 l-0.43343302607536316,0 c-1.1764500141143799,0 -1.2135860919952393,-0.14860230684280396 -1.2135860919952393,-0.6067951917648315 l0,-6.872886657714844 z" stroke-width="0" class="" id="svg_5"/><path d="m115.15729331970215,81.90713787078857 c0.48770999908447266,1.33010995388031 1.862130045890808,1.5739699602127075 2.7045400142669678,1.5739699602127075 c1.684790015220642,0 2.6823599338531494,-1.4631099700927734 3.3030900955200195,-2.9927399158477783 c0.5098699927330017,-1.2857600450515747 1.3301000595092773,-4.211979866027832 1.3301000595092773,-5.519899845123291 c0,-1.3522900342941284 -0.6872199773788452,-1.4852800369262695 -0.8867499828338623,-1.4852800369262695 c-0.5320299863815308,0 -1.0197499990463257,0.5320199728012085 -1.0197499990463257,0.9753900170326233 c0,0.2660300135612488 0.15520000457763672,0.42122000455856323 0.26603999733924866,0.5098900198936462 c0.19950999319553375,0.19949999451637268 0.7759000062942505,0.798039972782135 0.7759000062942505,1.9507999420166016 c0,0.7537400126457214 -0.6207299828529358,2.8375399112701416 -1.0862699747085571,3.879460096359253 c-0.6207000017166138,1.3522800207138062 -1.4409300088882446,2.2390100955963135 -2.593679904937744,2.2390100955963135 c-1.2414300441741943,0 -1.6404500007629395,-0.9310799837112427 -1.6404500007629395,-1.950819969177246 c0,-0.6428800225257874 0.19949999451637268,-1.4187699556350708 0.2881599962711334,-1.795639991760254 l0.9310899972915649,-3.724260091781616 c0.11078999936580658,-0.4433799982070923 0.3103500008583069,-1.2192800045013428 0.3103500008583069,-1.3079400062561035 c0,-0.33254000544548035 -0.2660199999809265,-0.5542200207710266 -0.598550021648407,-0.5542200207710266 c-0.6428899765014648,0 -0.7980599999427795,0.5542200207710266 -0.9310500025749207,1.0862699747085571 c-0.22169999778270721,0.864549994468689 -1.1527700424194336,4.611000061035156 -1.2414400577545166,5.098700046539307 c-0.08860000222921371,0.3768700063228607 -0.08860000222921371,0.6207200288772583 -0.08860000222921371,1.1084200143814087 c0,0.532039999961853 -0.7093999981880188,1.3744399547576904 -0.7315599918365479,1.418779969215393 c-0.24386000633239746,0.2438499927520752 -0.5985299944877625,0.620710015296936 -1.2857600450515747,0.620710015296936 c-1.7512999773025513,0 -1.7512999773025513,-1.6626299619674683 -1.7512999773025513,-2.039489984512329 c0,-0.7093799710273743 0.1551699936389923,-1.6848000288009644 1.152750015258789,-4.32282018661499 c0.2660300135612488,-0.6872400045394897 0.37685999274253845,-0.975409984588623 0.37685999274253845,-1.4187899827957153 c0,-0.9310600161552429 -0.6650500297546387,-1.7734500169754028 -1.751289963722229,-1.7734500169754028 c-2.0394999980926514,0 -2.8597300052642822,3.214400053024292 -2.8597300052642822,3.3917500972747803 c0,0.08860000222921371 0.08869999647140503,0.19952000677585602 0.24387000501155853,0.19952000677585602 c0.19950999319553375,0 0.221670001745224,-0.08869999647140503 0.3103399872779846,-0.39902999997138977 c0.5542200207710266,-1.950819969177246 1.418779969215393,-2.748889923095703 2.2390100955963135,-2.748889923095703 c0.22168000042438507,0 0.5763999819755554,0.022199999541044235 0.5763999819755554,0.7315499782562256 c0,0.11079999804496765 0,0.5763999819755554 -0.3768799901008606,1.551800012588501 c-1.0419199466705322,2.7710399627685547 -1.2635999917984009,3.6799399852752686 -1.2635999917984009,4.522339820861816 c0,2.3276801109313965 1.9064799547195435,2.748879909515381 3.037060022354126,2.748879909515381 c0.37685999274253845,0 1.3744299411773682,0 2.2611799240112305,-1.5739699602127075 z" inkscape:connector-curvature="0" class="" id="svg_6"/></g></g></svg>